STARTFONT 2.1
FONT -gbdfed-Unknown-Medium-R-Normal--5-5-96-96-P-5-FontSpecific-0
SIZE 0 96 96
FONTBOUNDINGBOX 10 16 0 -4
STARTPROPERTIES 10
POINT_SIZE 5
PIXEL_SIZE 5
RESOLUTION_X 96
RESOLUTION_Y 96
FONT_ASCENT 5
FONT_DESCENT 0
AVERAGE_WIDTH 5
SPACING "P"
FIGURE_WIDTH 5
_GBDFED_INFO "Edited with gbdfed 1.6."
ENDPROPERTIES
CHARS 42
STARTCHAR SPACE
ENCODING 32
SWIDTH 0 0
DWIDTH 5 0
BBX 0 0 0 0
BITMAP
ENDCHAR
STARTCHAR !
ENCODING 33
SWIDTH 0 0
DWIDTH 5 0
BBX 3 5 0 0
BITMAP
20
20
20
00
20
ENDCHAR
STARTCHAR 0
ENCODING 48
SWIDTH 0 0
DWIDTH 5 0
BBX 5 5 0 0
BITMAP
70
88
88
88
70
ENDCHAR
STARTCHAR 1
ENCODING 49
SWIDTH 0 0
DWIDTH 5 0
BBX 2 5 1 0
BITMAP
40
C0
40
40
40
ENDCHAR
STARTCHAR 2
ENCODING 50
SWIDTH 0 0
DWIDTH 5 0
BBX 5 5 0 0
BITMAP
F0
08
70
80
F8
ENDCHAR
STARTCHAR 3
ENCODING 51
SWIDTH 0 0
DWIDTH 5 0
BBX 5 5 0 0
BITMAP
F0
08
70
08
F0
ENDCHAR
STARTCHAR 4
ENCODING 52
SWIDTH 0 0
DWIDTH 5 0
BBX 5 5 0 0
BITMAP
88
88
78
08
08
ENDCHAR
STARTCHAR 5
ENCODING 53
SWIDTH 0 0
DWIDTH 5 0
BBX 5 5 0 0
BITMAP
F8
80
F0
08
F0
ENDCHAR
STARTCHAR 6
ENCODING 54
SWIDTH 0 0
DWIDTH 5 0
BBX 5 5 0 0
BITMAP
70
80
F0
88
70
ENDCHAR
STARTCHAR 7
ENCODING 55
SWIDTH 0 0
DWIDTH 5 0
BBX 5 5 0 0
BITMAP
F8
08
10
20
20
ENDCHAR
STARTCHAR 8
ENCODING 56
SWIDTH 0 0
DWIDTH 5 0
BBX 5 5 0 0
BITMAP
70
88
70
88
70
ENDCHAR
STARTCHAR 9
ENCODING 57
SWIDTH 0 0
DWIDTH 5 0
BBX 5 5 0 0
BITMAP
70
88
78
08
70
ENDCHAR
STARTCHAR A
ENCODING 65
SWIDTH 0 0
DWIDTH 5 0
BBX 5 5 0 0
BITMAP
70
88
F8
88
88
ENDCHAR
STARTCHAR B
ENCODING 66
SWIDTH 0 0
DWIDTH 5 0
BBX 5 5 0 0
BITMAP
F0
88
F0
88
F0
ENDCHAR
STARTCHAR C
ENCODING 67
SWIDTH 0 0
DWIDTH 5 0
BBX 5 5 0 0
BITMAP
78
80
80
80
78
ENDCHAR
STARTCHAR D
ENCODING 68
SWIDTH 0 0
DWIDTH 5 0
BBX 5 5 0 0
BITMAP
F0
88
88
88
F0
ENDCHAR
STARTCHAR E
ENCODING 69
SWIDTH 0 0
DWIDTH 5 0
BBX 5 5 0 0
BITMAP
F8
80
F0
80
F8
ENDCHAR
STARTCHAR F
ENCODING 70
SWIDTH 0 0
DWIDTH 5 0
BBX 5 5 0 0
BITMAP
F8
80
F0
80
80
ENDCHAR
STARTCHAR G
ENCODING 71
SWIDTH 0 0
DWIDTH 5 0
BBX 5 5 0 0
BITMAP
78
80
B8
88
70
ENDCHAR
STARTCHAR H
ENCODING 72
SWIDTH 0 0
DWIDTH 5 0
BBX 5 5 0 0
BITMAP
88
88
F8
88
88
ENDCHAR
STARTCHAR I
ENCODING 73
SWIDTH 0 0
DWIDTH 5 0
BBX 5 5 0 0
BITMAP
F8
20
20
20
F8
ENDCHAR
STARTCHAR J
ENCODING 74
SWIDTH 0 0
DWIDTH 5 0
BBX 5 5 0 0
BITMAP
F8
20
20
20
C0
ENDCHAR
STARTCHAR K
ENCODING 75
SWIDTH 0 0
DWIDTH 5 0
BBX 5 5 0 0
BITMAP
88
90
E0
90
88
ENDCHAR
STARTCHAR L
ENCODING 76
SWIDTH 0 0
DWIDTH 5 0
BBX 5 5 0 0
BITMAP
80
80
80
80
F8
ENDCHAR
STARTCHAR M
ENCODING 77
SWIDTH 0 0
DWIDTH 5 0
BBX 5 5 0 0
BITMAP
88
D8
A8
88
88
ENDCHAR
STARTCHAR N
ENCODING 78
SWIDTH 0 0
DWIDTH 5 0
BBX 5 5 0 0
BITMAP
88
C8
A8
98
88
ENDCHAR
STARTCHAR O
ENCODING 79
SWIDTH 0 0
DWIDTH 5 0
BBX 5 5 0 0
BITMAP
70
88
88
88
70
ENDCHAR
STARTCHAR P
ENCODING 80
SWIDTH 0 0
DWIDTH 5 0
BBX 5 5 0 0
BITMAP
F0
88
F0
80
80
ENDCHAR
STARTCHAR Q
ENCODING 81
SWIDTH 0 0
DWIDTH 5 0
BBX 5 5 0 0
BITMAP
70
88
88
98
78
ENDCHAR
STARTCHAR R
ENCODING 82
SWIDTH 0 0
DWIDTH 5 0
BBX 5 5 0 0
BITMAP
F0
88
F0
88
88
ENDCHAR
STARTCHAR S
ENCODING 83
SWIDTH 0 0
DWIDTH 5 0
BBX 5 5 0 0
BITMAP
78
80
70
08
F0
ENDCHAR
STARTCHAR T
ENCODING 84
SWIDTH 0 0
DWIDTH 5 0
BBX 5 5 0 0
BITMAP
F8
20
20
20
20
ENDCHAR
STARTCHAR U
ENCODING 85
SWIDTH 0 0
DWIDTH 5 0
BBX 5 5 0 0
BITMAP
88
88
88
88
70
ENDCHAR
STARTCHAR V
ENCODING 86
SWIDTH 0 0
DWIDTH 5 0
BBX 5 5 0 0
BITMAP
88
88
88
50
20
ENDCHAR
STARTCHAR W
ENCODING 87
SWIDTH 0 0
DWIDTH 5 0
BBX 5 5 0 0
BITMAP
88
88
A8
D8
88
ENDCHAR
STARTCHAR X
ENCODING 88
SWIDTH 0 0
DWIDTH 5 0
BBX 5 5 0 0
BITMAP
88
50
20
50
88
ENDCHAR
STARTCHAR Y
ENCODING 89
SWIDTH 0 0
DWIDTH 5 0
BBX 5 5 0 0
BITMAP
88
50
20
20
20
ENDCHAR
STARTCHAR Z
ENCODING 90
SWIDTH 0 0
DWIDTH 5 0
BBX 5 5 0 0
BITMAP
F8
10
20
40
F8
ENDCHAR
STARTCHAR th
ENCODING 123
SWIDTH 0 0
DWIDTH 6 0
BBX 6 5 0 0
BITMAP
50
50
F8
54
34
ENDCHAR
STARTCHAR st
ENCODING 124
SWIDTH 0 0
DWIDTH 5 0
BBX 5 5 0 0
BITMAP
10
78
D0
70
C8
ENDCHAR
STARTCHAR nd
ENCODING 125
SWIDTH 0 0
DWIDTH 6 0
BBX 6 5 0 0
BITMAP
04
04
DC
B4
BC
ENDCHAR
STARTCHAR rd
ENCODING 126
SWIDTH 0 0
DWIDTH 6 0
BBX 6 5 0 0
BITMAP
04
04
FC
94
9C
ENDCHAR
ENDFONT
